<svg xmlns="http://www.w3.org/2000/svg" version="1.1" xmlns:xlink="http://www.w3.org/1999/xlink" xmlns:svgjs="http://svgjs.dev/svgjs" width="2000" height="1500" viewBox="0 0 2000 1500"><rect width="2000" height="1500" fill="#ffffff"></rect><g transform="matrix(0.75,0,0,0.75,249.090909090909,642.0143435279044)"><svg viewBox="0 0 396 57" data-background-color="#e0ded5" preserveAspectRatio="xMidYMid meet" height="287" width="2000" xmlns="http://www.w3.org/2000/svg" xmlns:xlink="http://www.w3.org/1999/xlink"><g id="tight-bounds" transform="matrix(1,0,0,1,0.2400000000000091,0.09550484975352447)"><svg viewBox="0 0 395.52 56.80899030049293" height="56.80899030049293" width="395.52"><g><svg viewBox="0 0 449.26227896247985 64.52805533969678" height="56.80899030049293" width="395.52"><g transform="matrix(1,0,0,1,0,8.918132105558673)"><svg viewBox="0 0 395.5199999999999 46.69179112857943" height="46.69179112857943" width="395.5199999999999"><g id="textblocktransform"><svg viewBox="0 0 395.5199999999999 46.69179112857943" height="46.69179112857943" width="395.5199999999999" id="textblock"><g><svg viewBox="0 0 395.5199999999999 46.69179112857943" height="46.69179112857943" width="395.5199999999999"><g transform="matrix(1,0,0,1,0,0)"><svg width="395.5199999999999" viewBox="2.25 -41.5 356.17 42.05" height="46.69179112857943" data-palette-color="#1c1e53"><path d="M32.9-28.85L32.9-28.85Q32.9-26.2 32.05-24.1 31.2-22 29.38-20.55 27.55-19.1 24.63-18.3 21.7-17.5 17.5-17.5L17.5-17.5 13-17.5 13-7.85Q13-6 13.23-4.83 13.45-3.65 14.18-3 14.9-2.35 16.28-2.13 17.65-1.9 19.9-1.9L19.9-1.9 19.9 0 2.25 0 2.25-1.9Q4-1.95 5.08-2.2 6.15-2.45 6.75-3.05 7.35-3.65 7.55-4.75 7.75-5.85 7.75-7.6L7.75-7.6 7.75-30.9Q7.75-32.65 7.58-33.73 7.4-34.8 6.88-35.43 6.35-36.05 5.35-36.27 4.35-36.5 2.75-36.6L2.75-36.6 2.75-38.5 18.45-38.5Q25.35-38.5 29.13-35.95 32.9-33.4 32.9-28.85ZM13-35.3L13-20 16.55-20Q21.55-20 23.98-21.93 26.4-23.85 26.4-28.25L26.4-28.25Q26.4-32.5 24.48-34.33 22.55-36.15 18.45-36.15L18.45-36.15 13.85-36.15Q13-36.15 13-35.3L13-35.3ZM51.2-10.85L51.2-14.8Q48.35-13.7 46.37-12.65 44.4-11.6 43.2-10.55 42-9.5 41.47-8.45 40.95-7.4 40.95-6.3L40.95-6.3Q40.95-4.65 42.05-3.6 43.15-2.55 44.95-2.55L44.95-2.55Q46.25-2.55 47.37-3.2 48.5-3.85 49.35-4.98 50.2-6.1 50.7-7.63 51.2-9.15 51.2-10.85L51.2-10.85ZM44-13.8L51.2-16.95 51.2-19Q51.2-25.1 46-25.1L46-25.1Q45.15-25.1 44.55-24.95 43.95-24.8 43.55-24.45 43.15-24.1 42.82-23.45 42.5-22.8 42.2-21.85L42.2-21.85Q41.65-20.4 41.12-19.93 40.6-19.45 39.6-19.45L39.6-19.45Q37.1-19.45 37.1-21.95L37.1-21.95Q37.1-24.35 39.65-25.68 42.2-27 46.9-27L46.9-27Q51.9-27 54-25.23 56.1-23.45 56.1-19.2L56.1-19.2 56.1-8Q56.1-2.3 58.35-2.3L58.35-2.3Q59.05-2.3 59.7-2.48 60.35-2.65 60.8-3.4L60.8-3.4 61.5-2.2Q60.9-1.05 59.3-0.28 57.7 0.5 55.95 0.5L55.95 0.5Q53.75 0.5 52.67-0.9 51.6-2.3 51.6-4.85L51.6-4.85 51.35-4.85Q50.05-2.4 47.75-0.98 45.45 0.45 42.65 0.45L42.65 0.45Q39.5 0.45 37.7-1.15 35.9-2.75 35.9-5.45L35.9-5.45Q35.9-6.65 36.32-7.75 36.75-8.85 37.7-9.85 38.65-10.85 40.2-11.83 41.75-12.8 44-13.8L44-13.8ZM71.9-41.5L71.9-7.8Q71.9-5.9 72.05-4.75 72.2-3.6 72.67-2.95 73.15-2.3 74.02-2.05 74.9-1.8 76.35-1.75L76.35-1.75 76.35 0 62.55 0 62.55-1.75Q64.05-1.8 64.95-2.08 65.85-2.35 66.37-2.95 66.9-3.55 67.07-4.63 67.25-5.7 67.25-7.45L67.25-7.45 67.25-29Q67.25-31.7 67.17-33.52 67.1-35.35 66.95-36L66.95-36Q66.7-37.15 65.77-37.55 64.85-37.95 62.45-37.95L62.45-37.95 62.45-39.65 71.9-41.5ZM95.14-10.85L95.14-14.8Q92.29-13.7 90.32-12.65 88.34-11.6 87.14-10.55 85.94-9.5 85.42-8.45 84.89-7.4 84.89-6.3L84.89-6.3Q84.89-4.65 85.99-3.6 87.09-2.55 88.89-2.55L88.89-2.55Q90.19-2.55 91.32-3.2 92.44-3.85 93.29-4.98 94.14-6.1 94.64-7.63 95.14-9.15 95.14-10.85L95.14-10.85ZM87.94-13.8L95.14-16.95 95.14-19Q95.14-25.1 89.94-25.1L89.94-25.1Q89.09-25.1 88.49-24.95 87.89-24.8 87.49-24.45 87.09-24.1 86.77-23.45 86.44-22.8 86.14-21.85L86.14-21.85Q85.59-20.4 85.07-19.93 84.54-19.45 83.54-19.45L83.54-19.45Q81.04-19.45 81.04-21.95L81.04-21.95Q81.04-24.35 83.59-25.68 86.14-27 90.84-27L90.84-27Q95.84-27 97.94-25.23 100.04-23.45 100.04-19.2L100.04-19.2 100.04-8Q100.04-2.3 102.29-2.3L102.29-2.3Q102.99-2.3 103.64-2.48 104.29-2.65 104.74-3.4L104.74-3.4 105.44-2.2Q104.84-1.05 103.24-0.28 101.64 0.5 99.89 0.5L99.89 0.5Q97.69 0.5 96.62-0.9 95.54-2.3 95.54-4.85L95.54-4.85 95.29-4.85Q93.99-2.4 91.69-0.98 89.39 0.45 86.59 0.45L86.59 0.45Q83.44 0.45 81.64-1.15 79.84-2.75 79.84-5.45L79.84-5.45Q79.84-6.65 80.27-7.75 80.69-8.85 81.64-9.85 82.59-10.85 84.14-11.83 85.69-12.8 87.94-13.8L87.94-13.8ZM116.19-14.55L116.19-7.85Q116.19-5.8 116.29-4.63 116.39-3.45 116.82-2.83 117.24-2.2 118.07-2 118.89-1.8 120.34-1.7L120.34-1.7 120.34 0 107.24 0 107.24-1.7Q108.64-1.8 109.47-2 110.29-2.2 110.74-2.8 111.19-3.4 111.32-4.5 111.44-5.6 111.44-7.5L111.44-7.5 111.44-14.15Q111.44-20.1 111.14-21.4L111.14-21.4Q110.99-22.05 110.77-22.48 110.54-22.9 110.09-23.13 109.64-23.35 108.94-23.43 108.24-23.5 107.14-23.5L107.14-23.5 107.14-25.1 115.14-27 115.74-22.05 115.94-22.05Q117.84-24.4 120.39-25.7 122.94-27 125.94-27L125.94-27Q128.24-27 130.14-26.25 132.04-25.5 133.04-24.2L133.04-24.2Q133.89-23.05 134.24-21.23 134.59-19.4 134.59-16.2L134.59-16.2 134.59-7.85Q134.59-5.8 134.72-4.63 134.84-3.45 135.24-2.83 135.64-2.2 136.47-2 137.29-1.8 138.64-1.7L138.64-1.7 138.64 0 125.69 0 125.69-1.7Q127.09-1.75 127.92-1.98 128.74-2.2 129.17-2.8 129.59-3.4 129.72-4.53 129.84-5.65 129.84-7.5L129.84-7.5 129.84-14.1Q129.84-16.95 129.54-18.9 129.24-20.85 128.57-22.05 127.89-23.25 126.79-23.78 125.69-24.3 124.14-24.3L124.14-24.3Q121.89-24.3 120.02-23.13 118.14-21.95 117.09-19.9L117.09-19.9Q116.84-19.4 116.67-18.95 116.49-18.5 116.39-17.9 116.29-17.3 116.24-16.53 116.19-15.75 116.19-14.55L116.19-14.55ZM151.24-27L151.24-7.95Q151.24-6 151.41-4.83 151.59-3.65 152.09-2.98 152.59-2.3 153.49-2.05 154.39-1.8 155.89-1.75L155.89-1.75 155.89 0 141.54 0 141.54-1.75Q143.04-1.8 143.99-2.08 144.94-2.35 145.46-2.98 145.99-3.6 146.16-4.73 146.34-5.85 146.34-7.6L146.34-7.6 146.34-14Q146.34-16.9 146.26-18.78 146.19-20.65 145.99-21.35L145.99-21.35Q145.74-22.5 144.84-22.93 143.94-23.35 141.44-23.35L141.44-23.35 141.44-25.1 151.24-27ZM145.49-37.15L145.49-37.15Q145.49-38.45 146.39-39.35 147.29-40.25 148.59-40.25L148.59-40.25Q149.89-40.25 150.79-39.35 151.69-38.45 151.69-37.15L151.69-37.15Q151.69-35.85 150.79-34.95 149.89-34.05 148.59-34.05L148.59-34.05Q147.29-34.05 146.39-34.95 145.49-35.85 145.49-37.15ZM174.88-0.55L174.13-11.75 175.98-11.75Q176.33-9.5 177.31-7.7 178.28-5.9 179.76-4.65 181.23-3.4 183.16-2.73 185.08-2.05 187.33-2.05L187.33-2.05Q191.03-2.05 193.18-3.8 195.33-5.55 195.33-8.55L195.33-8.55Q195.33-9.8 194.91-10.85 194.48-11.9 193.48-12.88 192.48-13.85 190.81-14.8 189.13-15.75 186.58-16.85L186.58-16.85Q183.48-18.2 181.38-19.45 179.28-20.7 178.03-22.05 176.78-23.4 176.26-24.93 175.73-26.45 175.73-28.4L175.73-28.4Q175.73-30.7 176.56-32.65 177.38-34.6 178.88-36.02 180.38-37.45 182.43-38.23 184.48-39 186.93-39L186.93-39Q189.13-39 191.03-38.3 192.93-37.6 194.88-36.05L194.88-36.05 196.18-38.3 197.33-38.3 197.88-28.35 196.03-28.35Q194.83-32.45 192.56-34.45 190.28-36.45 187.08-36.45L187.08-36.45Q184.03-36.45 182.23-34.95 180.43-33.45 180.43-30.9L180.43-30.9Q180.43-29.7 180.83-28.73 181.23-27.75 182.13-26.88 183.03-26 184.48-25.13 185.93-24.25 188.08-23.3L188.08-23.3Q191.78-21.65 194.23-20.23 196.68-18.8 198.13-17.38 199.58-15.95 200.18-14.38 200.78-12.8 200.78-10.85L200.78-10.85Q200.78-8.35 199.78-6.25 198.78-4.15 196.98-2.65 195.18-1.15 192.68-0.33 190.18 0.5 187.18 0.5L187.18 0.5Q184.33 0.5 182.06-0.3 179.78-1.1 177.43-3L177.43-3 176.03-0.55 174.88-0.55ZM228.03-6.05L229.58-4.65Q225.33 0.5 219.03 0.5L219.03 0.5Q216.08 0.5 213.68-0.48 211.28-1.45 209.56-3.23 207.83-5 206.88-7.48 205.93-9.95 205.93-12.95L205.93-12.95Q205.93-16 206.93-18.6 207.93-21.2 209.76-23.05 211.58-24.9 214.11-25.95 216.63-27 219.63-27L219.63-27Q224.48-27 227.13-24.38 229.78-21.75 229.78-16.85L229.78-16.85Q229.78-16.15 229.51-16 229.23-15.85 228.23-15.85L228.23-15.85 211.78-15.85Q211.68-15.45 211.63-14.88 211.58-14.3 211.58-13.6L211.58-13.6Q211.58-11 212.21-8.88 212.83-6.75 214.01-5.25 215.18-3.75 216.81-2.93 218.43-2.1 220.43-2.1L220.43-2.1Q222.53-2.1 224.33-3.03 226.13-3.95 228.03-6.05L228.03-6.05ZM212.13-18.15L221.33-18.15Q222.33-18.15 222.93-18.2 223.53-18.25 223.83-18.4 224.13-18.55 224.23-18.82 224.33-19.1 224.33-19.55L224.33-19.55Q224.33-21.85 222.86-23.23 221.38-24.6 218.83-24.6L218.83-24.6Q213.43-24.6 212.13-18.15L212.13-18.15ZM242.58-41.5L242.58-7.8Q242.58-5.9 242.73-4.75 242.88-3.6 243.35-2.95 243.83-2.3 244.7-2.05 245.58-1.8 247.03-1.75L247.03-1.75 247.03 0 233.23 0 233.23-1.75Q234.73-1.8 235.63-2.08 236.53-2.35 237.05-2.95 237.58-3.55 237.75-4.63 237.93-5.7 237.93-7.45L237.93-7.45 237.93-29Q237.93-31.7 237.85-33.52 237.78-35.35 237.63-36L237.63-36Q237.38-37.15 236.45-37.55 235.53-37.95 233.13-37.95L233.13-37.95 233.13-39.65 242.58-41.5ZM261.73 0.55L253.28-20.3Q252.68-21.8 252.2-22.68 251.73-23.55 251.18-24 250.63-24.45 249.95-24.58 249.28-24.7 248.33-24.75L248.33-24.75 248.33-26.5 261.58-26.5 261.58-24.75Q260.58-24.7 259.93-24.65 259.28-24.6 258.9-24.43 258.53-24.25 258.38-23.93 258.23-23.6 258.23-23L258.23-23Q258.23-22.15 258.45-21.4 258.68-20.65 258.93-19.9L258.93-19.9 264.23-5.4 264.43-5.4 268.98-16.15Q270.03-18.65 270.48-20.15 270.93-21.65 270.93-22.8L270.93-22.8Q270.93-23.95 270.33-24.35 269.73-24.75 267.73-24.75L267.73-24.75 267.73-26.5 277.68-26.5 277.68-24.75Q276.88-24.75 276.23-24.35 275.58-23.95 275.08-23.35L275.08-23.35Q274.68-22.8 274.25-21.88 273.83-20.95 273.4-19.95 272.98-18.95 272.63-17.98 272.28-17 271.98-16.4L271.98-16.4 264.63 0.55 261.73 0.55ZM295.52-10.85L295.52-14.8Q292.67-13.7 290.7-12.65 288.72-11.6 287.52-10.55 286.32-9.5 285.8-8.45 285.27-7.4 285.27-6.3L285.27-6.3Q285.27-4.65 286.37-3.6 287.47-2.55 289.27-2.55L289.27-2.55Q290.57-2.55 291.7-3.2 292.82-3.85 293.67-4.98 294.52-6.1 295.02-7.63 295.52-9.15 295.52-10.85L295.52-10.85ZM288.32-13.8L295.52-16.95 295.52-19Q295.52-25.1 290.32-25.1L290.32-25.1Q289.47-25.1 288.87-24.95 288.27-24.8 287.87-24.45 287.47-24.1 287.15-23.45 286.82-22.8 286.52-21.85L286.52-21.85Q285.97-20.4 285.45-19.93 284.92-19.45 283.92-19.45L283.92-19.45Q281.42-19.45 281.42-21.95L281.42-21.95Q281.42-24.35 283.97-25.68 286.52-27 291.22-27L291.22-27Q296.22-27 298.32-25.23 300.42-23.45 300.42-19.2L300.42-19.2 300.42-8Q300.42-2.3 302.67-2.3L302.67-2.3Q303.37-2.3 304.02-2.48 304.67-2.65 305.12-3.4L305.12-3.4 305.82-2.2Q305.22-1.05 303.62-0.28 302.02 0.5 300.27 0.5L300.27 0.5Q298.07 0.5 297-0.9 295.92-2.3 295.92-4.85L295.92-4.85 295.67-4.85Q294.37-2.4 292.07-0.98 289.77 0.45 286.97 0.45L286.97 0.45Q283.82 0.45 282.02-1.15 280.22-2.75 280.22-5.45L280.22-5.45Q280.22-6.65 280.65-7.75 281.07-8.85 282.02-9.85 282.97-10.85 284.52-11.83 286.07-12.8 288.32-13.8L288.32-13.8ZM316.82-14.35L316.82-8Q316.82-5.9 316.92-4.7 317.02-3.5 317.45-2.88 317.87-2.25 318.67-2.05 319.47-1.85 320.92-1.75L320.92-1.75 320.92 0 307.62 0 307.62-1.75Q309.07-1.85 309.92-2.05 310.77-2.25 311.22-2.85 311.67-3.45 311.8-4.58 311.92-5.7 311.92-7.6L311.92-7.6 311.92-14Q311.92-16.85 311.85-18.75 311.77-20.65 311.57-21.35L311.57-21.35Q311.42-22 311.22-22.38 311.02-22.75 310.57-22.98 310.12-23.2 309.4-23.28 308.67-23.35 307.52-23.35L307.52-23.35 307.52-25.1 315.67-27 316.32-22 316.57-22Q318.82-24.55 321.3-25.78 323.77-27 326.77-27L326.77-27Q329.92-27 332.07-25.73 334.22-24.45 335.07-22.05L335.07-22.05 335.27-22.05Q337.12-24.4 339.77-25.7 342.42-27 345.42-27L345.42-27Q347.77-27 349.7-26.23 351.62-25.45 352.62-24.1L352.62-24.1Q353.52-22.95 353.9-21.08 354.27-19.2 354.27-15.95L354.27-15.95 354.27-8Q354.27-5.95 354.4-4.75 354.52-3.55 354.92-2.9 355.32-2.25 356.15-2.05 356.97-1.85 358.42-1.75L358.42-1.75 358.42 0 345.12 0 345.12-1.75Q346.52-1.8 347.37-2.02 348.22-2.25 348.67-2.88 349.12-3.5 349.25-4.6 349.37-5.7 349.37-7.6L349.37-7.6 349.37-13.9Q349.37-16.75 349.07-18.73 348.77-20.7 348.07-21.93 347.37-23.15 346.25-23.7 345.12-24.25 343.52-24.25L343.52-24.25Q341.32-24.25 339.4-23.03 337.47-21.8 336.37-19.75L336.37-19.75Q336.12-19.25 335.95-18.78 335.77-18.3 335.67-17.73 335.57-17.15 335.55-16.35 335.52-15.55 335.52-14.35L335.52-14.35 335.52-8Q335.52-5.95 335.62-4.75 335.72-3.55 336.15-2.9 336.57-2.25 337.42-2.05 338.27-1.85 339.72-1.75L339.72-1.75 339.72 0 326.42 0 326.42-1.75Q327.82-1.85 328.67-2.05 329.52-2.25 329.95-2.85 330.37-3.45 330.5-4.58 330.62-5.7 330.62-7.6L330.62-7.6 330.62-13.9Q330.62-16.8 330.32-18.78 330.02-20.75 329.35-21.98 328.67-23.2 327.57-23.73 326.47-24.25 324.87-24.25L324.87-24.25Q322.62-24.25 320.65-23.03 318.67-21.8 317.67-19.75L317.67-19.75Q317.42-19.25 317.25-18.78 317.07-18.3 316.97-17.73 316.87-17.15 316.85-16.35 316.82-15.55 316.82-14.35L316.82-14.35Z" opacity="1" transform="matrix(1,0,0,1,0,0)" fill="#000000" class="wordmark-text-0" data-fill-palette-color="primary" id="text-0"></path></svg></g></svg></g></svg></g></svg></g><g transform="matrix(1,0,0,1,406.54281128247044,0)"><svg viewBox="0 0 42.719467680009394 64.52805533969678" height="64.52805533969678" width="42.719467680009394"><g><svg xmlns="http://www.w3.org/2000/svg" xmlns:xlink="http://www.w3.org/1999/xlink" version="1.1" x="0" y="0" viewBox="24.761855407245655 5 59.58264309935908 90" enable-background="new 0 0 100 100" xml:space="preserve" width="42.719467680009394" height="64.52805533969678" class="icon-icon-0" data-fill-palette-color="accent" id="icon-0"><g fill="#1c1e53" data-fill-palette-color="accent"><path d="M73.76 35.603C86.875 48 91.5 66.25 65.633 82.379c3.64-4.928 5.654-9.794 6.096-14.669 0.951-10.516-5.606-19.072-12.835-26.752C48.298 29.7 47.51 18.84 56.413 6.782 54.578 22.641 64.6 26.944 73.76 35.603zM45.288 93.716c6.184-13.053 7.276-20.302-8.197-34.939-4.204-3.977-7.451-8.029-9.71-12.086-2.881 6.435-5.164 20.081 3.244 27.935C36.312 79.938 44.125 83.125 45.288 93.716zM56.709 43.014C48.183 33.954 41.999 21.253 54 5 21.497 17.692 19.625 38.125 39.151 56.597 55.603 72.158 54.75 80.75 48 95 79.875 71.5 68.709 55.764 56.709 43.014z" fill="#000000" data-fill-palette-color="accent"></path></g></svg></g></svg></g></svg></g><defs></defs></svg><rect width="395.52" height="56.80899030049293" fill="none" stroke="none" visibility="hidden"></rect></g></svg></g></svg>